<?xml version="1.0" encoding="UTF-8" standalone="no"?><svg xmlns="http://www.w3.org/2000/svg" xmlns:xlink="http://www.w3.org/1999/xlink" fill="#000000" height="157.3" id="Layer_1" preserveAspectRatio="xMidYMid meet" version="1.1" viewBox="5.1 62.4 273.2 157.3" width="273.2" x="0" xml:space="preserve" y="0" zoomAndPan="magnify"><g id="change1_1"><path d="M89.02,207.48c-11.05,0-21.52-0.81-31.13-2.43c-27.9-4.73-45.31-15.86-49.04-31.33 c-3.72-15.48,6.72-33.31,29.41-50.22c22.46-16.73,54.3-30.63,89.66-39.14c35.36-8.51,70.04-10.62,97.65-5.94 c27.9,4.73,45.31,15.86,49.04,31.33c3.72,15.48-6.72,33.31-29.41,50.22c-22.46,16.73-54.3,30.63-89.66,39.14 C132.49,204.65,109.72,207.48,89.02,207.48z M194.44,77.98c-20.54,0-43.14,2.81-66.05,8.32c-35.11,8.45-66.69,22.23-88.94,38.8 c-22.01,16.39-32.19,33.49-28.66,48.14c7.36,30.56,72.08,41.29,144.28,23.92c35.11-8.45,66.69-22.23,88.94-38.8 c22.01-16.4,32.19-33.49,28.66-48.14c-3.53-14.65-20.37-25.25-47.43-29.83C215.74,78.78,205.38,77.98,194.44,77.98z" fill="#9b1f53"/></g><g id="change1_2"><path d="M210.86 72.25L214.34 62.39 212.85 72.74 220.52 65.63 214.38 74.1 224.48 71.37 215.11 76.02 225.32 78.29 214.86 78.05 222.85 84.81 213.7 79.74 217.63 89.43 211.88 80.69 210.86 91.1 209.83 80.69 204.08 89.43 208.01 79.74 198.86 84.81 206.85 78.05 196.39 78.29 206.6 76.02 197.23 71.37 207.33 74.1 201.19 65.63 208.86 72.74 207.37 62.39z" fill="#9b1f53"/></g><g id="change1_3"><path d="M80.92 200.82L84.4 190.96 82.91 201.31 90.58 194.2 84.44 202.67 94.54 199.94 85.17 204.59 95.38 206.86 84.92 206.62 92.91 213.38 83.76 208.31 87.69 218.01 81.94 209.26 80.92 219.67 79.89 209.26 74.15 218.01 78.08 208.31 68.93 213.38 76.91 206.62 66.45 206.86 76.67 204.59 67.29 199.94 77.39 202.67 71.26 194.2 78.93 201.31 77.43 190.96z" fill="#9b1f53"/></g></svg>